# xmcd
# 
# Track frame offsets:
#     150
#     2430
#     18950
#     35662
#     50767
#     58500
#     77390
#     93750
#     101142
#     115647
#     133345
#     144560
#     164925
# 
# Disc length: 2311
# 
# Revision: 31
# Processed by: cddbd v1.5.2PL0 Copyright (c) Steve Scherf et al.
# Submitted via: BonkEnc v1.0.6
# 
DISCID=a809050d
DTITLE=Rob Zombie - Hellbilly Deluxe
DYEAR=1998
DGENRE=Metal
TTITLE0=Call Of The Zombie
TTITLE1=Superbeast
TTITLE2=Dragula
TTITLE3=Living Dead Girl
TTITLE4=Perversion 99
TTITLE5=Demonoid Phenomenon
TTITLE6=Spookshow Baby
TTITLE7=How To Make A Monster
TTITLE8=Meet The Creeper
TTITLE9=The Ballad Of Resurrection Joe
TTITLE10=What Lurks On Channel X?
TTITLE11=Return Of The Phantom Stranger
TTITLE12=The Beginning Of The End
EXTD=
EXTT0=
EXTT1=
EXTT2=
EXTT3=
EXTT4=
EXTT5=
EXTT6=
EXTT7=
EXTT8=
EXTT9=
EXTT10=
EXTT11=
EXTT12=
PLAYORDER=
